# MagicaVoxel @ Ephtracy

# group
o 

# material
mtllib small_spruce.mtl
usemtl palette

# normals
vn -1 0 0
vn 1 0 0
vn 0 0 1
vn 0 0 -1
vn 0 -1 0
vn 0 1 0

# texcoords
vt 0.310547 0.5
vt 0.541016 0.5

# verts
v -1.4 1.6 -0.3
v -1.4 1.6 -0.8
v -1.4 2.1 -0.3
v -1.4 2.1 -0.8
v -1.4 2.6 -0.3
v -1.4 2.6 -0.8
v -1.4 3.1 -0.3
v -1.4 3.1 -0.8
v -1.4 3.6 -0.3
v -1.4 3.6 -0.8
v -1.4 4.1 -0.3
v -1.4 4.1 -0.8
v -1.4 4.6 -0.3
v -1.4 4.6 -0.8
v -1.4 5.1 -0.3
v -1.4 5.1 -0.8
v -1.4 5.6 -0.3
v -1.4 5.6 -0.8
v -1.4 6.1 -0.3
v -1.4 6.1 -0.8
v -1.4 6.6 -0.3
v -1.4 6.6 -0.8
v -1.4 7.1 -0.3
v -1.4 7.1 -0.8
v -1.4 7.6 -0.3
v -1.4 7.6 -0.8
v -1.4 8.1 -0.3
v -1.4 8.1 -0.8
v -1.4 8.6 -0.3
v -1.4 8.6 -0.8
v -1.4 9.1 -0.3
v -1.4 9.1 -0.8
v -1.4 9.6 -0.3
v -1.4 9.6 -0.8
v -1.4 10.1 -0.3
v -1.4 10.1 -0.8
v -0.2 0 -0.3
v -0.2 0 -0.8
v -0.2 1.6 0.9
v -0.2 1.6 -0.3
v -0.2 1.6 -0.8
v -0.2 1.6 -2
v -0.2 2.1 0.9
v -0.2 2.1 -0.3
v -0.2 2.1 -0.8
v -0.2 2.1 -2
v -0.2 2.6 0.9
v -0.2 2.6 -0.3
v -0.2 2.6 -0.8
v -0.2 2.6 -2
v -0.2 3.1 0.9
v -0.2 3.1 -0.3
v -0.2 3.1 -0.8
v -0.2 3.1 -2
v -0.2 3.6 0.9
v -0.2 3.6 -0.3
v -0.2 3.6 -0.8
v -0.2 3.6 -2
v -0.2 4.1 0.9
v -0.2 4.1 -0.3
v -0.2 4.1 -0.8
v -0.2 4.1 -2
v -0.2 4.6 0.9
v -0.2 4.6 -0.3
v -0.2 4.6 -0.8
v -0.2 4.6 -2
v -0.2 5.1 0.9
v -0.2 5.1 -0.3
v -0.2 5.1 -0.8
v -0.2 5.1 -2
v -0.2 5.6 0.9
v -0.2 5.6 -0.3
v -0.2 5.6 -0.8
v -0.2 5.6 -2
v -0.2 6.1 0.9
v -0.2 6.1 -0.3
v -0.2 6.1 -0.8
v -0.2 6.1 -2
v -0.2 6.6 0.9
v -0.2 6.6 -0.3
v -0.2 6.6 -0.8
v -0.2 6.6 -2
v -0.2 7.1 0.9
v -0.2 7.1 -0.3
v -0.2 7.1 -0.8
v -0.2 7.1 -2
v -0.2 7.6 0.9
v -0.2 7.6 -0.3
v -0.2 7.6 -0.8
v -0.2 7.6 -2
v -0.2 8.1 0.9
v -0.2 8.1 -0.3
v -0.2 8.1 -0.8
v -0.2 8.1 -2
v -0.2 8.6 0.9
v -0.2 8.6 -0.3
v -0.2 8.6 -0.8
v -0.2 8.6 -2
v -0.2 9.1 0.9
v -0.2 9.1 -0.3
v -0.2 9.1 -0.8
v -0.2 9.1 -2
v -0.2 9.6 0.9
v -0.2 9.6 -0.3
v -0.2 9.6 -0.8
v -0.2 9.6 -2
v -0.2 10.1 0.9
v -0.2 10.1 -0.3
v -0.2 10.1 -0.8
v -0.2 10.1 -2
v -0.2 11.6 -0.3
v -0.2 11.6 -0.8
v 0.3 0 -0.3
v 0.3 0 -0.8
v 0.3 1.6 0.9
v 0.3 1.6 -0.3
v 0.3 1.6 -0.8
v 0.3 1.6 -2
v 0.3 2.1 0.9
v 0.3 2.1 -0.3
v 0.3 2.1 -0.8
v 0.3 2.1 -2
v 0.3 2.6 0.9
v 0.3 2.6 -0.3
v 0.3 2.6 -0.8
v 0.3 2.6 -2
v 0.3 3.1 0.9
v 0.3 3.1 -0.3
v 0.3 3.1 -0.8
v 0.3 3.1 -2
v 0.3 3.6 0.9
v 0.3 3.6 -0.3
v 0.3 3.6 -0.8
v 0.3 3.6 -2
v 0.3 4.1 0.9
v 0.3 4.1 -0.3
v 0.3 4.1 -0.8
v 0.3 4.1 -2
v 0.3 4.6 0.9
v 0.3 4.6 -0.3
v 0.3 4.6 -0.8
v 0.3 4.6 -2
v 0.3 5.1 0.9
v 0.3 5.1 -0.3
v 0.3 5.1 -0.8
v 0.3 5.1 -2
v 0.3 5.6 0.9
v 0.3 5.6 -0.3
v 0.3 5.6 -0.8
v 0.3 5.6 -2
v 0.3 6.1 0.9
v 0.3 6.1 -0.3
v 0.3 6.1 -0.8
v 0.3 6.1 -2
v 0.3 6.6 0.9
v 0.3 6.6 -0.3
v 0.3 6.6 -0.8
v 0.3 6.6 -2
v 0.3 7.1 0.9
v 0.3 7.1 -0.3
v 0.3 7.1 -0.8
v 0.3 7.1 -2
v 0.3 7.6 0.9
v 0.3 7.6 -0.3
v 0.3 7.6 -0.8
v 0.3 7.6 -2
v 0.3 8.1 0.9
v 0.3 8.1 -0.3
v 0.3 8.1 -0.8
v 0.3 8.1 -2
v 0.3 8.6 0.9
v 0.3 8.6 -0.3
v 0.3 8.6 -0.8
v 0.3 8.6 -2
v 0.3 9.1 0.9
v 0.3 9.1 -0.3
v 0.3 9.1 -0.8
v 0.3 9.1 -2
v 0.3 9.6 0.9
v 0.3 9.6 -0.3
v 0.3 9.6 -0.8
v 0.3 9.6 -2
v 0.3 10.1 0.9
v 0.3 10.1 -0.3
v 0.3 10.1 -0.8
v 0.3 10.1 -2
v 0.3 11.6 -0.3
v 0.3 11.6 -0.8
v 1.5 1.6 -0.3
v 1.5 1.6 -0.8
v 1.5 2.1 -0.3
v 1.5 2.1 -0.8
v 1.5 2.6 -0.3
v 1.5 2.6 -0.8
v 1.5 3.1 -0.3
v 1.5 3.1 -0.8
v 1.5 3.6 -0.3
v 1.5 3.6 -0.8
v 1.5 4.1 -0.3
v 1.5 4.1 -0.8
v 1.5 4.6 -0.3
v 1.5 4.6 -0.8
v 1.5 5.1 -0.3
v 1.5 5.1 -0.8
v 1.5 5.6 -0.3
v 1.5 5.6 -0.8
v 1.5 6.1 -0.3
v 1.5 6.1 -0.8
v 1.5 6.6 -0.3
v 1.5 6.6 -0.8
v 1.5 7.1 -0.3
v 1.5 7.1 -0.8
v 1.5 7.6 -0.3
v 1.5 7.6 -0.8
v 1.5 8.1 -0.3
v 1.5 8.1 -0.8
v 1.5 8.6 -0.3
v 1.5 8.6 -0.8
v 1.5 9.1 -0.3
v 1.5 9.1 -0.8
v 1.5 9.6 -0.3
v 1.5 9.6 -0.8
v 1.5 10.1 -0.3
v 1.5 10.1 -0.8
v -0.2 1.6 0.9
v -0.2 2.1 0.9
v -0.2 2.6 0.9
v -0.2 3.1 0.9
v -0.2 3.6 0.9
v -0.2 4.1 0.9
v -0.2 4.6 0.9
v -0.2 5.1 0.9
v -0.2 5.6 0.9
v -0.2 6.1 0.9
v -0.2 6.6 0.9
v -0.2 7.1 0.9
v -0.2 7.6 0.9
v -0.2 8.1 0.9
v -0.2 8.6 0.9
v -0.2 9.1 0.9
v -0.2 9.6 0.9
v -0.2 10.1 0.9
v 0.3 1.6 0.9
v 0.3 2.1 0.9
v 0.3 2.6 0.9
v 0.3 3.1 0.9
v 0.3 3.6 0.9
v 0.3 4.1 0.9
v 0.3 4.6 0.9
v 0.3 5.1 0.9
v 0.3 5.6 0.9
v 0.3 6.1 0.9
v 0.3 6.6 0.9
v 0.3 7.1 0.9
v 0.3 7.6 0.9
v 0.3 8.1 0.9
v 0.3 8.6 0.9
v 0.3 9.1 0.9
v 0.3 9.6 0.9
v 0.3 10.1 0.9
v -1.4 1.6 -0.3
v -1.4 2.1 -0.3
v -1.4 2.6 -0.3
v -1.4 3.1 -0.3
v -1.4 3.6 -0.3
v -1.4 4.1 -0.3
v -1.4 4.6 -0.3
v -1.4 5.1 -0.3
v -1.4 5.6 -0.3
v -1.4 6.1 -0.3
v -1.4 6.6 -0.3
v -1.4 7.1 -0.3
v -1.4 7.6 -0.3
v -1.4 8.1 -0.3
v -1.4 8.6 -0.3
v -1.4 9.1 -0.3
v -1.4 9.6 -0.3
v -1.4 10.1 -0.3
v -0.2 0 -0.3
v -0.2 1.6 -0.3
v -0.2 2.1 -0.3
v -0.2 2.6 -0.3
v -0.2 3.1 -0.3
v -0.2 3.6 -0.3
v -0.2 4.1 -0.3
v -0.2 4.6 -0.3
v -0.2 5.1 -0.3
v -0.2 5.6 -0.3
v -0.2 6.1 -0.3
v -0.2 6.6 -0.3
v -0.2 7.1 -0.3
v -0.2 7.6 -0.3
v -0.2 8.1 -0.3
v -0.2 8.6 -0.3
v -0.2 9.1 -0.3
v -0.2 9.6 -0.3
v -0.2 10.1 -0.3
v -0.2 11.6 -0.3
v 0.3 0 -0.3
v 0.3 1.6 -0.3
v 0.3 2.1 -0.3
v 0.3 2.6 -0.3
v 0.3 3.1 -0.3
v 0.3 3.6 -0.3
v 0.3 4.1 -0.3
v 0.3 4.6 -0.3
v 0.3 5.1 -0.3
v 0.3 5.6 -0.3
v 0.3 6.1 -0.3
v 0.3 6.6 -0.3
v 0.3 7.1 -0.3
v 0.3 7.6 -0.3
v 0.3 8.1 -0.3
v 0.3 8.6 -0.3
v 0.3 9.1 -0.3
v 0.3 9.6 -0.3
v 0.3 10.1 -0.3
v 0.3 11.6 -0.3
v 1.5 1.6 -0.3
v 1.5 2.1 -0.3
v 1.5 2.6 -0.3
v 1.5 3.1 -0.3
v 1.5 3.6 -0.3
v 1.5 4.1 -0.3
v 1.5 4.6 -0.3
v 1.5 5.1 -0.3
v 1.5 5.6 -0.3
v 1.5 6.1 -0.3
v 1.5 6.6 -0.3
v 1.5 7.1 -0.3
v 1.5 7.6 -0.3
v 1.5 8.1 -0.3
v 1.5 8.6 -0.3
v 1.5 9.1 -0.3
v 1.5 9.6 -0.3
v 1.5 10.1 -0.3
v -1.4 1.6 -0.8
v -1.4 2.1 -0.8
v -1.4 2.6 -0.8
v -1.4 3.1 -0.8
v -1.4 3.6 -0.8
v -1.4 4.1 -0.8
v -1.4 4.6 -0.8
v -1.4 5.1 -0.8
v -1.4 5.6 -0.8
v -1.4 6.1 -0.8
v -1.4 6.6 -0.8
v -1.4 7.1 -0.8
v -1.4 7.6 -0.8
v -1.4 8.1 -0.8
v -1.4 8.6 -0.8
v -1.4 9.1 -0.8
v -1.4 9.6 -0.8
v -1.4 10.1 -0.8
v -0.2 0 -0.8
v -0.2 1.6 -0.8
v -0.2 2.1 -0.8
v -0.2 2.6 -0.8
v -0.2 3.1 -0.8
v -0.2 3.6 -0.8
v -0.2 4.1 -0.8
v -0.2 4.6 -0.8
v -0.2 5.1 -0.8
v -0.2 5.6 -0.8
v -0.2 6.1 -0.8
v -0.2 6.6 -0.8
v -0.2 7.1 -0.8
v -0.2 7.6 -0.8
v -0.2 8.1 -0.8
v -0.2 8.6 -0.8
v -0.2 9.1 -0.8
v -0.2 9.6 -0.8
v -0.2 10.1 -0.8
v -0.2 11.6 -0.8
v 0.3 0 -0.8
v 0.3 1.6 -0.8
v 0.3 2.1 -0.8
v 0.3 2.6 -0.8
v 0.3 3.1 -0.8
v 0.3 3.6 -0.8
v 0.3 4.1 -0.8
v 0.3 4.6 -0.8
v 0.3 5.1 -0.8
v 0.3 5.6 -0.8
v 0.3 6.1 -0.8
v 0.3 6.6 -0.8
v 0.3 7.1 -0.8
v 0.3 7.6 -0.8
v 0.3 8.1 -0.8
v 0.3 8.6 -0.8
v 0.3 9.1 -0.8
v 0.3 9.6 -0.8
v 0.3 10.1 -0.8
v 0.3 11.6 -0.8
v 1.5 1.6 -0.8
v 1.5 2.1 -0.8
v 1.5 2.6 -0.8
v 1.5 3.1 -0.8
v 1.5 3.6 -0.8
v 1.5 4.1 -0.8
v 1.5 4.6 -0.8
v 1.5 5.1 -0.8
v 1.5 5.6 -0.8
v 1.5 6.1 -0.8
v 1.5 6.6 -0.8
v 1.5 7.1 -0.8
v 1.5 7.6 -0.8
v 1.5 8.1 -0.8
v 1.5 8.6 -0.8
v 1.5 9.1 -0.8
v 1.5 9.6 -0.8
v 1.5 10.1 -0.8
v -0.2 1.6 -2
v -0.2 2.1 -2
v -0.2 2.6 -2
v -0.2 3.1 -2
v -0.2 3.6 -2
v -0.2 4.1 -2
v -0.2 4.6 -2
v -0.2 5.1 -2
v -0.2 5.6 -2
v -0.2 6.1 -2
v -0.2 6.6 -2
v -0.2 7.1 -2
v -0.2 7.6 -2
v -0.2 8.1 -2
v -0.2 8.6 -2
v -0.2 9.1 -2
v -0.2 9.6 -2
v -0.2 10.1 -2
v 0.3 1.6 -2
v 0.3 2.1 -2
v 0.3 2.6 -2
v 0.3 3.1 -2
v 0.3 3.6 -2
v 0.3 4.1 -2
v 0.3 4.6 -2
v 0.3 5.1 -2
v 0.3 5.6 -2
v 0.3 6.1 -2
v 0.3 6.6 -2
v 0.3 7.1 -2
v 0.3 7.6 -2
v 0.3 8.1 -2
v 0.3 8.6 -2
v 0.3 9.1 -2
v 0.3 9.6 -2
v 0.3 10.1 -2
v -0.2 0 -0.3
v 0.3 0 -0.3
v -0.2 0 -0.8
v 0.3 0 -0.8
v -0.2 1.6 0.9
v 0.3 1.6 0.9
v -1.4 1.6 -0.3
v -0.2 1.6 -0.3
v 0.3 1.6 -0.3
v 1.5 1.6 -0.3
v -1.4 1.6 -0.8
v -0.2 1.6 -0.8
v 0.3 1.6 -0.8
v 1.5 1.6 -0.8
v -0.2 1.6 -2
v 0.3 1.6 -2
v -0.2 2.6 0.9
v 0.3 2.6 0.9
v -1.4 2.6 -0.3
v -0.2 2.6 -0.3
v 0.3 2.6 -0.3
v 1.5 2.6 -0.3
v -1.4 2.6 -0.8
v -0.2 2.6 -0.8
v 0.3 2.6 -0.8
v 1.5 2.6 -0.8
v -0.2 2.6 -2
v 0.3 2.6 -2
v -0.2 3.6 0.9
v 0.3 3.6 0.9
v -1.4 3.6 -0.3
v -0.2 3.6 -0.3
v 0.3 3.6 -0.3
v 1.5 3.6 -0.3
v -1.4 3.6 -0.8
v -0.2 3.6 -0.8
v 0.3 3.6 -0.8
v 1.5 3.6 -0.8
v -0.2 3.6 -2
v 0.3 3.6 -2
v -0.2 4.6 0.9
v 0.3 4.6 0.9
v -1.4 4.6 -0.3
v -0.2 4.6 -0.3
v 0.3 4.6 -0.3
v 1.5 4.6 -0.3
v -1.4 4.6 -0.8
v -0.2 4.6 -0.8
v 0.3 4.6 -0.8
v 1.5 4.6 -0.8
v -0.2 4.6 -2
v 0.3 4.6 -2
v -0.2 5.6 0.9
v 0.3 5.6 0.9
v -1.4 5.6 -0.3
v -0.2 5.6 -0.3
v 0.3 5.6 -0.3
v 1.5 5.6 -0.3
v -1.4 5.6 -0.8
v -0.2 5.6 -0.8
v 0.3 5.6 -0.8
v 1.5 5.6 -0.8
v -0.2 5.6 -2
v 0.3 5.6 -2
v -0.2 6.6 0.9
v 0.3 6.6 0.9
v -1.4 6.6 -0.3
v -0.2 6.6 -0.3
v 0.3 6.6 -0.3
v 1.5 6.6 -0.3
v -1.4 6.6 -0.8
v -0.2 6.6 -0.8
v 0.3 6.6 -0.8
v 1.5 6.6 -0.8
v -0.2 6.6 -2
v 0.3 6.6 -2
v -0.2 7.6 0.9
v 0.3 7.6 0.9
v -1.4 7.6 -0.3
v -0.2 7.6 -0.3
v 0.3 7.6 -0.3
v 1.5 7.6 -0.3
v -1.4 7.6 -0.8
v -0.2 7.6 -0.8
v 0.3 7.6 -0.8
v 1.5 7.6 -0.8
v -0.2 7.6 -2
v 0.3 7.6 -2
v -0.2 8.6 0.9
v 0.3 8.6 0.9
v -1.4 8.6 -0.3
v -0.2 8.6 -0.3
v 0.3 8.6 -0.3
v 1.5 8.6 -0.3
v -1.4 8.6 -0.8
v -0.2 8.6 -0.8
v 0.3 8.6 -0.8
v 1.5 8.6 -0.8
v -0.2 8.6 -2
v 0.3 8.6 -2
v -0.2 9.6 0.9
v 0.3 9.6 0.9
v -1.4 9.6 -0.3
v -0.2 9.6 -0.3
v 0.3 9.6 -0.3
v 1.5 9.6 -0.3
v -1.4 9.6 -0.8
v -0.2 9.6 -0.8
v 0.3 9.6 -0.8
v 1.5 9.6 -0.8
v -0.2 9.6 -2
v 0.3 9.6 -2
v -0.2 2.1 0.9
v 0.3 2.1 0.9
v -1.4 2.1 -0.3
v -0.2 2.1 -0.3
v 0.3 2.1 -0.3
v 1.5 2.1 -0.3
v -1.4 2.1 -0.8
v -0.2 2.1 -0.8
v 0.3 2.1 -0.8
v 1.5 2.1 -0.8
v -0.2 2.1 -2
v 0.3 2.1 -2
v -0.2 3.1 0.9
v 0.3 3.1 0.9
v -1.4 3.1 -0.3
v -0.2 3.1 -0.3
v 0.3 3.1 -0.3
v 1.5 3.1 -0.3
v -1.4 3.1 -0.8
v -0.2 3.1 -0.8
v 0.3 3.1 -0.8
v 1.5 3.1 -0.8
v -0.2 3.1 -2
v 0.3 3.1 -2
v -0.2 4.1 0.9
v 0.3 4.1 0.9
v -1.4 4.1 -0.3
v -0.2 4.1 -0.3
v 0.3 4.1 -0.3
v 1.5 4.1 -0.3
v -1.4 4.1 -0.8
v -0.2 4.1 -0.8
v 0.3 4.1 -0.8
v 1.5 4.1 -0.8
v -0.2 4.1 -2
v 0.3 4.1 -2
v -0.2 5.1 0.9
v 0.3 5.1 0.9
v -1.4 5.1 -0.3
v -0.2 5.1 -0.3
v 0.3 5.1 -0.3
v 1.5 5.1 -0.3
v -1.4 5.1 -0.8
v -0.2 5.1 -0.8
v 0.3 5.1 -0.8
v 1.5 5.1 -0.8
v -0.2 5.1 -2
v 0.3 5.1 -2
v -0.2 6.1 0.9
v 0.3 6.1 0.9
v -1.4 6.1 -0.3
v -0.2 6.1 -0.3
v 0.3 6.1 -0.3
v 1.5 6.1 -0.3
v -1.4 6.1 -0.8
v -0.2 6.1 -0.8
v 0.3 6.1 -0.8
v 1.5 6.1 -0.8
v -0.2 6.1 -2
v 0.3 6.1 -2
v -0.2 7.1 0.9
v 0.3 7.1 0.9
v -1.4 7.1 -0.3
v -0.2 7.1 -0.3
v 0.3 7.1 -0.3
v 1.5 7.1 -0.3
v -1.4 7.1 -0.8
v -0.2 7.1 -0.8
v 0.3 7.1 -0.8
v 1.5 7.1 -0.8
v -0.2 7.1 -2
v 0.3 7.1 -2
v -0.2 8.1 0.9
v 0.3 8.1 0.9
v -1.4 8.1 -0.3
v -0.2 8.1 -0.3
v 0.3 8.1 -0.3
v 1.5 8.1 -0.3
v -1.4 8.1 -0.8
v -0.2 8.1 -0.8
v 0.3 8.1 -0.8
v 1.5 8.1 -0.8
v -0.2 8.1 -2
v 0.3 8.1 -2
v -0.2 9.1 0.9
v 0.3 9.1 0.9
v -1.4 9.1 -0.3
v -0.2 9.1 -0.3
v 0.3 9.1 -0.3
v 1.5 9.1 -0.3
v -1.4 9.1 -0.8
v -0.2 9.1 -0.8
v 0.3 9.1 -0.8
v 1.5 9.1 -0.8
v -0.2 9.1 -2
v 0.3 9.1 -2
v -0.2 10.1 0.9
v 0.3 10.1 0.9
v -1.4 10.1 -0.3
v -0.2 10.1 -0.3
v 0.3 10.1 -0.3
v 1.5 10.1 -0.3
v -1.4 10.1 -0.8
v -0.2 10.1 -0.8
v 0.3 10.1 -0.8
v 1.5 10.1 -0.8
v -0.2 10.1 -2
v 0.3 10.1 -2
v -0.2 11.6 -0.3
v 0.3 11.6 -0.3
v -0.2 11.6 -0.8
v 0.3 11.6 -0.8

# faces
f 3/2/1 2/2/1 1/2/1
f 4/2/1 2/2/1 3/2/1
f 7/2/1 6/2/1 5/2/1
f 8/2/1 6/2/1 7/2/1
f 11/2/1 10/2/1 9/2/1
f 12/2/1 10/2/1 11/2/1
f 15/2/1 14/2/1 13/2/1
f 16/2/1 14/2/1 15/2/1
f 19/2/1 18/2/1 17/2/1
f 20/2/1 18/2/1 19/2/1
f 23/2/1 22/2/1 21/2/1
f 24/2/1 22/2/1 23/2/1
f 27/2/1 26/2/1 25/2/1
f 28/2/1 26/2/1 27/2/1
f 31/2/1 30/2/1 29/2/1
f 32/2/1 30/2/1 31/2/1
f 35/2/1 34/2/1 33/2/1
f 36/2/1 34/2/1 35/2/1
f 40/1/1 38/1/1 37/1/1
f 41/1/1 38/1/1 40/1/1
f 43/2/1 40/2/1 39/2/1
f 44/2/1 40/2/1 43/2/1
f 45/2/1 42/2/1 41/2/1
f 46/2/1 42/2/1 45/2/1
f 48/1/1 45/1/1 44/1/1
f 49/1/1 45/1/1 48/1/1
f 51/2/1 48/2/1 47/2/1
f 52/2/1 48/2/1 51/2/1
f 53/2/1 50/2/1 49/2/1
f 54/2/1 50/2/1 53/2/1
f 56/1/1 53/1/1 52/1/1
f 57/1/1 53/1/1 56/1/1
f 59/2/1 56/2/1 55/2/1
f 60/2/1 56/2/1 59/2/1
f 61/2/1 58/2/1 57/2/1
f 62/2/1 58/2/1 61/2/1
f 64/1/1 61/1/1 60/1/1
f 65/1/1 61/1/1 64/1/1
f 67/2/1 64/2/1 63/2/1
f 68/2/1 64/2/1 67/2/1
f 69/2/1 66/2/1 65/2/1
f 70/2/1 66/2/1 69/2/1
f 72/1/1 69/1/1 68/1/1
f 73/1/1 69/1/1 72/1/1
f 75/2/1 72/2/1 71/2/1
f 76/2/1 72/2/1 75/2/1
f 77/2/1 74/2/1 73/2/1
f 78/2/1 74/2/1 77/2/1
f 80/1/1 77/1/1 76/1/1
f 81/1/1 77/1/1 80/1/1
f 83/2/1 80/2/1 79/2/1
f 84/2/1 80/2/1 83/2/1
f 85/2/1 82/2/1 81/2/1
f 86/2/1 82/2/1 85/2/1
f 88/1/1 85/1/1 84/1/1
f 89/1/1 85/1/1 88/1/1
f 91/2/1 88/2/1 87/2/1
f 92/2/1 88/2/1 91/2/1
f 93/2/1 90/2/1 89/2/1
f 94/2/1 90/2/1 93/2/1
f 96/1/1 93/1/1 92/1/1
f 97/1/1 93/1/1 96/1/1
f 99/2/1 96/2/1 95/2/1
f 100/2/1 96/2/1 99/2/1
f 101/2/1 98/2/1 97/2/1
f 102/2/1 98/2/1 101/2/1
f 104/1/1 101/1/1 100/1/1
f 105/1/1 101/1/1 104/1/1
f 107/2/1 104/2/1 103/2/1
f 108/2/1 104/2/1 107/2/1
f 109/2/1 106/2/1 105/2/1
f 110/2/1 106/2/1 109/2/1
f 111/2/1 109/2/1 108/2/1
f 112/2/1 109/2/1 111/2/1
f 113/1/2 114/1/2 116/1/2
f 116/1/2 114/1/2 117/1/2
f 115/2/2 116/2/2 119/2/2
f 119/2/2 116/2/2 120/2/2
f 117/2/2 118/2/2 121/2/2
f 121/2/2 118/2/2 122/2/2
f 120/1/2 121/1/2 124/1/2
f 124/1/2 121/1/2 125/1/2
f 123/2/2 124/2/2 127/2/2
f 127/2/2 124/2/2 128/2/2
f 125/2/2 126/2/2 129/2/2
f 129/2/2 126/2/2 130/2/2
f 128/1/2 129/1/2 132/1/2
f 132/1/2 129/1/2 133/1/2
f 131/2/2 132/2/2 135/2/2
f 135/2/2 132/2/2 136/2/2
f 133/2/2 134/2/2 137/2/2
f 137/2/2 134/2/2 138/2/2
f 136/1/2 137/1/2 140/1/2
f 140/1/2 137/1/2 141/1/2
f 139/2/2 140/2/2 143/2/2
f 143/2/2 140/2/2 144/2/2
f 141/2/2 142/2/2 145/2/2
f 145/2/2 142/2/2 146/2/2
f 144/1/2 145/1/2 148/1/2
f 148/1/2 145/1/2 149/1/2
f 147/2/2 148/2/2 151/2/2
f 151/2/2 148/2/2 152/2/2
f 149/2/2 150/2/2 153/2/2
f 153/2/2 150/2/2 154/2/2
f 152/1/2 153/1/2 156/1/2
f 156/1/2 153/1/2 157/1/2
f 155/2/2 156/2/2 159/2/2
f 159/2/2 156/2/2 160/2/2
f 157/2/2 158/2/2 161/2/2
f 161/2/2 158/2/2 162/2/2
f 160/1/2 161/1/2 164/1/2
f 164/1/2 161/1/2 165/1/2
f 163/2/2 164/2/2 167/2/2
f 167/2/2 164/2/2 168/2/2
f 165/2/2 166/2/2 169/2/2
f 169/2/2 166/2/2 170/2/2
f 168/1/2 169/1/2 172/1/2
f 172/1/2 169/1/2 173/1/2
f 171/2/2 172/2/2 175/2/2
f 175/2/2 172/2/2 176/2/2
f 173/2/2 174/2/2 177/2/2
f 177/2/2 174/2/2 178/2/2
f 176/1/2 177/1/2 180/1/2
f 180/1/2 177/1/2 181/1/2
f 179/2/2 180/2/2 183/2/2
f 183/2/2 180/2/2 184/2/2
f 181/2/2 182/2/2 185/2/2
f 185/2/2 182/2/2 186/2/2
f 184/2/2 185/2/2 187/2/2
f 187/2/2 185/2/2 188/2/2
f 189/2/2 190/2/2 191/2/2
f 191/2/2 190/2/2 192/2/2
f 193/2/2 194/2/2 195/2/2
f 195/2/2 194/2/2 196/2/2
f 197/2/2 198/2/2 199/2/2
f 199/2/2 198/2/2 200/2/2
f 201/2/2 202/2/2 203/2/2
f 203/2/2 202/2/2 204/2/2
f 205/2/2 206/2/2 207/2/2
f 207/2/2 206/2/2 208/2/2
f 209/2/2 210/2/2 211/2/2
f 211/2/2 210/2/2 212/2/2
f 213/2/2 214/2/2 215/2/2
f 215/2/2 214/2/2 216/2/2
f 217/2/2 218/2/2 219/2/2
f 219/2/2 218/2/2 220/2/2
f 221/2/2 222/2/2 223/2/2
f 223/2/2 222/2/2 224/2/2
f 243/2/3 226/2/3 225/2/3
f 244/2/3 226/2/3 243/2/3
f 245/2/3 228/2/3 227/2/3
f 246/2/3 228/2/3 245/2/3
f 247/2/3 230/2/3 229/2/3
f 248/2/3 230/2/3 247/2/3
f 249/2/3 232/2/3 231/2/3
f 250/2/3 232/2/3 249/2/3
f 251/2/3 234/2/3 233/2/3
f 252/2/3 234/2/3 251/2/3
f 253/2/3 236/2/3 235/2/3
f 254/2/3 236/2/3 253/2/3
f 255/2/3 238/2/3 237/2/3
f 256/2/3 238/2/3 255/2/3
f 257/2/3 240/2/3 239/2/3
f 258/2/3 240/2/3 257/2/3
f 259/2/3 242/2/3 241/2/3
f 260/2/3 242/2/3 259/2/3
f 280/2/3 262/2/3 261/2/3
f 281/2/3 262/2/3 280/2/3
f 282/2/3 264/2/3 263/2/3
f 283/2/3 264/2/3 282/2/3
f 284/2/3 266/2/3 265/2/3
f 285/2/3 266/2/3 284/2/3
f 286/2/3 268/2/3 267/2/3
f 287/2/3 268/2/3 286/2/3
f 288/2/3 270/2/3 269/2/3
f 289/2/3 270/2/3 288/2/3
f 290/2/3 272/2/3 271/2/3
f 291/2/3 272/2/3 290/2/3
f 292/2/3 274/2/3 273/2/3
f 293/2/3 274/2/3 292/2/3
f 294/2/3 276/2/3 275/2/3
f 295/2/3 276/2/3 294/2/3
f 296/2/3 278/2/3 277/2/3
f 297/2/3 278/2/3 296/2/3
f 299/1/3 280/1/3 279/1/3
f 300/1/3 280/1/3 299/1/3
f 301/1/3 282/1/3 281/1/3
f 302/1/3 282/1/3 301/1/3
f 303/1/3 284/1/3 283/1/3
f 304/1/3 284/1/3 303/1/3
f 305/1/3 286/1/3 285/1/3
f 306/1/3 286/1/3 305/1/3
f 307/1/3 288/1/3 287/1/3
f 308/1/3 288/1/3 307/1/3
f 309/1/3 290/1/3 289/1/3
f 310/1/3 290/1/3 309/1/3
f 311/1/3 292/1/3 291/1/3
f 312/1/3 292/1/3 311/1/3
f 313/1/3 294/1/3 293/1/3
f 314/1/3 294/1/3 313/1/3
f 315/1/3 296/1/3 295/1/3
f 316/1/3 296/1/3 315/1/3
f 317/2/3 298/2/3 297/2/3
f 318/2/3 298/2/3 317/2/3
f 319/2/3 301/2/3 300/2/3
f 320/2/3 301/2/3 319/2/3
f 321/2/3 303/2/3 302/2/3
f 322/2/3 303/2/3 321/2/3
f 323/2/3 305/2/3 304/2/3
f 324/2/3 305/2/3 323/2/3
f 325/2/3 307/2/3 306/2/3
f 326/2/3 307/2/3 325/2/3
f 327/2/3 309/2/3 308/2/3
f 328/2/3 309/2/3 327/2/3
f 329/2/3 311/2/3 310/2/3
f 330/2/3 311/2/3 329/2/3
f 331/2/3 313/2/3 312/2/3
f 332/2/3 313/2/3 331/2/3
f 333/2/3 315/2/3 314/2/3
f 334/2/3 315/2/3 333/2/3
f 335/2/3 317/2/3 316/2/3
f 336/2/3 317/2/3 335/2/3
f 337/2/4 338/2/4 356/2/4
f 356/2/4 338/2/4 357/2/4
f 339/2/4 340/2/4 358/2/4
f 358/2/4 340/2/4 359/2/4
f 341/2/4 342/2/4 360/2/4
f 360/2/4 342/2/4 361/2/4
f 343/2/4 344/2/4 362/2/4
f 362/2/4 344/2/4 363/2/4
f 345/2/4 346/2/4 364/2/4
f 364/2/4 346/2/4 365/2/4
f 347/2/4 348/2/4 366/2/4
f 366/2/4 348/2/4 367/2/4
f 349/2/4 350/2/4 368/2/4
f 368/2/4 350/2/4 369/2/4
f 351/2/4 352/2/4 370/2/4
f 370/2/4 352/2/4 371/2/4
f 353/2/4 354/2/4 372/2/4
f 372/2/4 354/2/4 373/2/4
f 355/1/4 356/1/4 375/1/4
f 375/1/4 356/1/4 376/1/4
f 357/1/4 358/1/4 377/1/4
f 377/1/4 358/1/4 378/1/4
f 359/1/4 360/1/4 379/1/4
f 379/1/4 360/1/4 380/1/4
f 361/1/4 362/1/4 381/1/4
f 381/1/4 362/1/4 382/1/4
f 363/1/4 364/1/4 383/1/4
f 383/1/4 364/1/4 384/1/4
f 365/1/4 366/1/4 385/1/4
f 385/1/4 366/1/4 386/1/4
f 367/1/4 368/1/4 387/1/4
f 387/1/4 368/1/4 388/1/4
f 369/1/4 370/1/4 389/1/4
f 389/1/4 370/1/4 390/1/4
f 371/1/4 372/1/4 391/1/4
f 391/1/4 372/1/4 392/1/4
f 373/2/4 374/2/4 393/2/4
f 393/2/4 374/2/4 394/2/4
f 376/2/4 377/2/4 395/2/4
f 395/2/4 377/2/4 396/2/4
f 378/2/4 379/2/4 397/2/4
f 397/2/4 379/2/4 398/2/4
f 380/2/4 381/2/4 399/2/4
f 399/2/4 381/2/4 400/2/4
f 382/2/4 383/2/4 401/2/4
f 401/2/4 383/2/4 402/2/4
f 384/2/4 385/2/4 403/2/4
f 403/2/4 385/2/4 404/2/4
f 386/2/4 387/2/4 405/2/4
f 405/2/4 387/2/4 406/2/4
f 388/2/4 389/2/4 407/2/4
f 407/2/4 389/2/4 408/2/4
f 390/2/4 391/2/4 409/2/4
f 409/2/4 391/2/4 410/2/4
f 392/2/4 393/2/4 411/2/4
f 411/2/4 393/2/4 412/2/4
f 413/2/4 414/2/4 431/2/4
f 431/2/4 414/2/4 432/2/4
f 415/2/4 416/2/4 433/2/4
f 433/2/4 416/2/4 434/2/4
f 417/2/4 418/2/4 435/2/4
f 435/2/4 418/2/4 436/2/4
f 419/2/4 420/2/4 437/2/4
f 437/2/4 420/2/4 438/2/4
f 421/2/4 422/2/4 439/2/4
f 439/2/4 422/2/4 440/2/4
f 423/2/4 424/2/4 441/2/4
f 441/2/4 424/2/4 442/2/4
f 425/2/4 426/2/4 443/2/4
f 443/2/4 426/2/4 444/2/4
f 427/2/4 428/2/4 445/2/4
f 445/2/4 428/2/4 446/2/4
f 429/2/4 430/2/4 447/2/4
f 447/2/4 430/2/4 448/2/4
f 451/1/5 450/1/5 449/1/5
f 452/1/5 450/1/5 451/1/5
f 456/2/5 454/2/5 453/2/5
f 457/2/5 454/2/5 456/2/5
f 459/2/5 456/2/5 455/2/5
f 460/2/5 456/2/5 459/2/5
f 461/2/5 458/2/5 457/2/5
f 462/2/5 458/2/5 461/2/5
f 463/2/5 461/2/5 460/2/5
f 464/2/5 461/2/5 463/2/5
f 468/2/5 466/2/5 465/2/5
f 469/2/5 466/2/5 468/2/5
f 471/2/5 468/2/5 467/2/5
f 472/2/5 468/2/5 471/2/5
f 473/2/5 470/2/5 469/2/5
f 474/2/5 470/2/5 473/2/5
f 475/2/5 473/2/5 472/2/5
f 476/2/5 473/2/5 475/2/5
f 480/2/5 478/2/5 477/2/5
f 481/2/5 478/2/5 480/2/5
f 483/2/5 480/2/5 479/2/5
f 484/2/5 480/2/5 483/2/5
f 485/2/5 482/2/5 481/2/5
f 486/2/5 482/2/5 485/2/5
f 487/2/5 485/2/5 484/2/5
f 488/2/5 485/2/5 487/2/5
f 492/2/5 490/2/5 489/2/5
f 493/2/5 490/2/5 492/2/5
f 495/2/5 492/2/5 491/2/5
f 496/2/5 492/2/5 495/2/5
f 497/2/5 494/2/5 493/2/5
f 498/2/5 494/2/5 497/2/5
f 499/2/5 497/2/5 496/2/5
f 500/2/5 497/2/5 499/2/5
f 504/2/5 502/2/5 501/2/5
f 505/2/5 502/2/5 504/2/5
f 507/2/5 504/2/5 503/2/5
f 508/2/5 504/2/5 507/2/5
f 509/2/5 506/2/5 505/2/5
f 510/2/5 506/2/5 509/2/5
f 511/2/5 509/2/5 508/2/5
f 512/2/5 509/2/5 511/2/5
f 516/2/5 514/2/5 513/2/5
f 517/2/5 514/2/5 516/2/5
f 519/2/5 516/2/5 515/2/5
f 520/2/5 516/2/5 519/2/5
f 521/2/5 518/2/5 517/2/5
f 522/2/5 518/2/5 521/2/5
f 523/2/5 521/2/5 520/2/5
f 524/2/5 521/2/5 523/2/5
f 528/2/5 526/2/5 525/2/5
f 529/2/5 526/2/5 528/2/5
f 531/2/5 528/2/5 527/2/5
f 532/2/5 528/2/5 531/2/5
f 533/2/5 530/2/5 529/2/5
f 534/2/5 530/2/5 533/2/5
f 535/2/5 533/2/5 532/2/5
f 536/2/5 533/2/5 535/2/5
f 540/2/5 538/2/5 537/2/5
f 541/2/5 538/2/5 540/2/5
f 543/2/5 540/2/5 539/2/5
f 544/2/5 540/2/5 543/2/5
f 545/2/5 542/2/5 541/2/5
f 546/2/5 542/2/5 545/2/5
f 547/2/5 545/2/5 544/2/5
f 548/2/5 545/2/5 547/2/5
f 552/2/5 550/2/5 549/2/5
f 553/2/5 550/2/5 552/2/5
f 555/2/5 552/2/5 551/2/5
f 556/2/5 552/2/5 555/2/5
f 557/2/5 554/2/5 553/2/5
f 558/2/5 554/2/5 557/2/5
f 559/2/5 557/2/5 556/2/5
f 560/2/5 557/2/5 559/2/5
f 561/2/6 562/2/6 564/2/6
f 564/2/6 562/2/6 565/2/6
f 563/2/6 564/2/6 567/2/6
f 567/2/6 564/2/6 568/2/6
f 565/2/6 566/2/6 569/2/6
f 569/2/6 566/2/6 570/2/6
f 568/2/6 569/2/6 571/2/6
f 571/2/6 569/2/6 572/2/6
f 573/2/6 574/2/6 576/2/6
f 576/2/6 574/2/6 577/2/6
f 575/2/6 576/2/6 579/2/6
f 579/2/6 576/2/6 580/2/6
f 577/2/6 578/2/6 581/2/6
f 581/2/6 578/2/6 582/2/6
f 580/2/6 581/2/6 583/2/6
f 583/2/6 581/2/6 584/2/6
f 585/2/6 586/2/6 588/2/6
f 588/2/6 586/2/6 589/2/6
f 587/2/6 588/2/6 591/2/6
f 591/2/6 588/2/6 592/2/6
f 589/2/6 590/2/6 593/2/6
f 593/2/6 590/2/6 594/2/6
f 592/2/6 593/2/6 595/2/6
f 595/2/6 593/2/6 596/2/6
f 597/2/6 598/2/6 600/2/6
f 600/2/6 598/2/6 601/2/6
f 599/2/6 600/2/6 603/2/6
f 603/2/6 600/2/6 604/2/6
f 601/2/6 602/2/6 605/2/6
f 605/2/6 602/2/6 606/2/6
f 604/2/6 605/2/6 607/2/6
f 607/2/6 605/2/6 608/2/6
f 609/2/6 610/2/6 612/2/6
f 612/2/6 610/2/6 613/2/6
f 611/2/6 612/2/6 615/2/6
f 615/2/6 612/2/6 616/2/6
f 613/2/6 614/2/6 617/2/6
f 617/2/6 614/2/6 618/2/6
f 616/2/6 617/2/6 619/2/6
f 619/2/6 617/2/6 620/2/6
f 621/2/6 622/2/6 624/2/6
f 624/2/6 622/2/6 625/2/6
f 623/2/6 624/2/6 627/2/6
f 627/2/6 624/2/6 628/2/6
f 625/2/6 626/2/6 629/2/6
f 629/2/6 626/2/6 630/2/6
f 628/2/6 629/2/6 631/2/6
f 631/2/6 629/2/6 632/2/6
f 633/2/6 634/2/6 636/2/6
f 636/2/6 634/2/6 637/2/6
f 635/2/6 636/2/6 639/2/6
f 639/2/6 636/2/6 640/2/6
f 637/2/6 638/2/6 641/2/6
f 641/2/6 638/2/6 642/2/6
f 640/2/6 641/2/6 643/2/6
f 643/2/6 641/2/6 644/2/6
f 645/2/6 646/2/6 648/2/6
f 648/2/6 646/2/6 649/2/6
f 647/2/6 648/2/6 651/2/6
f 651/2/6 648/2/6 652/2/6
f 649/2/6 650/2/6 653/2/6
f 653/2/6 650/2/6 654/2/6
f 652/2/6 653/2/6 655/2/6
f 655/2/6 653/2/6 656/2/6
f 657/2/6 658/2/6 660/2/6
f 660/2/6 658/2/6 661/2/6
f 659/2/6 660/2/6 663/2/6
f 663/2/6 660/2/6 664/2/6
f 661/2/6 662/2/6 665/2/6
f 665/2/6 662/2/6 666/2/6
f 664/2/6 665/2/6 667/2/6
f 667/2/6 665/2/6 668/2/6
f 669/2/6 670/2/6 671/2/6
f 671/2/6 670/2/6 672/2/6
